<?xml version="1.0" encoding="utf-8" standalone="no"?>
<!DOCTYPE svg PUBLIC "-//W3C//DTD SVG 1.1//EN"
  "http://www.w3.org/Graphics/SVG/1.1/DTD/svg11.dtd">
<!-- Created with matplotlib (http://matplotlib.org/) -->
<svg height="432pt" version="1.1" viewBox="0 0 576 432" width="576pt" xmlns="http://www.w3.org/2000/svg" xmlns:xlink="http://www.w3.org/1999/xlink">
 <defs>
  <style type="text/css">
*{stroke-linecap:butt;stroke-linejoin:round;stroke-miterlimit:100000;}
  </style>
 </defs>
 <g id="figure_1">
  <g id="patch_1">
   <path d="M 0 432 
L 576 432 
L 576 0 
L 0 0 
z
" style="fill:#ffffff;"/>
  </g>
  <g id="axes_1">
   <g id="patch_2">
    <path d="M 72 388.8 
L 518.4 388.8 
L 518.4 43.2 
L 72 43.2 
z
" style="fill:#ffffff;"/>
   </g>
   <g id="line2d_1">
    <path clip-path="url(#p11ca527cda)" d="M 76.006877 348.497424 
L 86.07544 348.497426 
L 96.144003 348.497425 
L 106.212565 348.49742 
L 116.281128 348.497413 
L 126.349691 348.497402 
L 136.418254 348.497389 
L 146.486817 348.497375 
L 156.555379 348.497359 
L 166.623942 348.497342 
L 176.692505 348.497325 
L 186.761068 348.497308 
L 196.829631 348.497291 
L 206.898193 348.497276 
L 216.966756 348.497262 
L 227.035319 348.497249 
L 237.103882 348.497239 
L 247.172445 348.497232 
L 257.241007 348.497226 
L 267.30957 348.497224 
L 277.378133 348.497224 
L 287.446696 348.497227 
L 297.515258 348.497233 
L 307.583821 348.497241 
L 317.652384 348.497252 
L 327.720947 348.497265 
L 337.78951 348.49728 
L 347.858072 348.497296 
L 357.926635 348.497312 
L 367.995198 348.49733 
L 378.063761 348.497348 
L 388.132324 348.497365 
L 398.200886 348.497381 
L 408.269449 348.497396 
L 418.338012 348.497409 
L 428.406575 348.497419 
L 438.475138 348.497427 
L 448.5437 348.497431 
L 458.612263 348.497433 
L 468.680826 348.49743 
" style="fill:none;stroke:#ff0000;stroke-linecap:square;"/>
   </g>
   <g id="line2d_2">
    <path clip-path="url(#p11ca527cda)" d="M 76.006877 348.411771 
L 86.07544 348.411934 
L 96.144003 348.412105 
L 106.212565 348.412284 
L 116.281128 348.412467 
L 126.349691 348.412652 
L 136.418254 348.412838 
L 146.486817 348.413021 
L 156.555379 348.4132 
L 166.623942 348.413373 
L 176.692505 348.413538 
L 186.761068 348.413692 
L 196.829631 348.413834 
L 206.898193 348.413962 
L 216.966756 348.414075 
L 227.035319 348.414171 
L 237.103882 348.414249 
L 247.172445 348.414308 
L 257.241007 348.414348 
L 267.30957 348.414369 
L 277.378133 348.414369 
L 287.446696 348.414348 
L 297.515258 348.414308 
L 307.583821 348.414249 
L 317.652384 348.41417 
L 327.720947 348.414074 
L 337.78951 348.413961 
L 347.858072 348.413833 
L 357.926635 348.413691 
L 367.995198 348.413537 
L 378.063761 348.413372 
L 388.132324 348.413199 
L 398.200886 348.41302 
L 408.269449 348.412837 
L 418.338012 348.412651 
L 428.406575 348.412466 
L 438.475138 348.412283 
L 448.5437 348.412104 
L 458.612263 348.411933 
L 468.680826 348.41177 
" style="fill:none;stroke:#ff0000;stroke-linecap:square;"/>
   </g>
   <g id="line2d_3">
    <path clip-path="url(#p11ca527cda)" d="M 76.006877 344.844045 
L 86.07544 344.844118 
L 96.144003 344.844213 
L 106.212565 344.844326 
L 116.281128 344.844456 
L 126.349691 344.844599 
L 136.418254 344.844752 
L 146.486817 344.844912 
L 156.555379 344.845075 
L 166.623942 344.845239 
L 176.692505 344.8454 
L 186.761068 344.845555 
L 196.829631 344.845701 
L 206.898193 344.845835 
L 216.966756 344.845955 
L 227.035319 344.846057 
L 237.103882 344.846142 
L 247.172445 344.846206 
L 257.241007 344.846249 
L 267.30957 344.84627 
L 277.378133 344.846269 
L 287.446696 344.846244 
L 297.515258 344.846198 
L 307.583821 344.846131 
L 317.652384 344.846043 
L 327.720947 344.845938 
L 337.78951 344.845815 
L 347.858072 344.845679 
L 357.926635 344.84553 
L 367.995198 344.845373 
L 378.063761 344.84521 
L 388.132324 344.845044 
L 398.200886 344.844878 
L 408.269449 344.844716 
L 418.338012 344.844562 
L 428.406575 344.844418 
L 438.475138 344.844287 
L 448.5437 344.844173 
L 458.612263 344.844078 
L 468.680826 344.844004 
" style="fill:none;stroke:#ff0000;stroke-linecap:square;"/>
   </g>
   <g id="line2d_4">
    <path clip-path="url(#p11ca527cda)" d="M 76.006877 344.44042 
L 86.07544 344.440332 
L 96.144003 344.440155 
L 106.212565 344.4399 
L 116.281128 344.43958 
L 126.349691 344.439207 
L 136.418254 344.438793 
L 146.486817 344.438349 
L 156.555379 344.437887 
L 166.623942 344.437419 
L 176.692505 344.436956 
L 186.761068 344.436507 
L 196.829631 344.436083 
L 206.898193 344.435692 
L 216.966756 344.435341 
L 227.035319 344.435039 
L 237.103882 344.434789 
L 247.172445 344.434598 
L 257.241007 344.434469 
L 267.30957 344.434404 
L 277.378133 344.434404 
L 287.446696 344.434469 
L 297.515258 344.434599 
L 307.583821 344.434791 
L 317.652384 344.43504 
L 327.720947 344.435343 
L 337.78951 344.435694 
L 347.858072 344.436086 
L 357.926635 344.43651 
L 367.995198 344.436959 
L 378.063761 344.437423 
L 388.132324 344.437891 
L 398.200886 344.438352 
L 408.269449 344.438796 
L 418.338012 344.439211 
L 428.406575 344.439584 
L 438.475138 344.439904 
L 448.5437 344.440158 
L 458.612263 344.440335 
L 468.680826 344.440423 
" style="fill:none;stroke:#ff0000;stroke-linecap:square;"/>
   </g>
   <g id="line2d_5">
    <path clip-path="url(#p11ca527cda)" d="M 76.006877 338.891264 
L 86.07544 338.891173 
L 96.144003 338.890984 
L 106.212565 338.890705 
L 116.281128 338.890347 
L 126.349691 338.889921 
L 136.418254 338.889441 
L 146.486817 338.888918 
L 156.555379 338.888366 
L 166.623942 338.887799 
L 176.692505 338.887231 
L 186.761068 338.886675 
L 196.829631 338.886144 
L 206.898193 338.88565 
L 216.966756 338.885204 
L 227.035319 338.884817 
L 237.103882 338.884497 
L 247.172445 338.884251 
L 257.241007 338.884085 
L 267.30957 338.884002 
L 277.378133 338.884004 
L 287.446696 338.884092 
L 297.515258 338.884264 
L 307.583821 338.884515 
L 317.652384 338.88484 
L 327.720947 338.885232 
L 337.78951 338.885682 
L 347.858072 338.88618 
L 357.926635 338.886716 
L 367.995198 338.887275 
L 378.063761 338.887847 
L 388.132324 338.888416 
L 398.200886 338.88897 
L 408.269449 338.889496 
L 418.338012 338.889978 
L 428.406575 338.890405 
L 438.475138 338.890764 
L 448.5437 338.891043 
L 458.612263 338.891232 
L 468.680826 338.891321 
" style="fill:none;stroke:#ff0000;stroke-linecap:square;"/>
   </g>
   <g id="line2d_6">
    <path clip-path="url(#p11ca527cda)" d="M 76.006877 337.616717 
L 86.07544 337.61967 
L 96.144003 337.622765 
L 106.212565 337.625966 
L 116.281128 337.629236 
L 126.349691 337.632536 
L 136.418254 337.635828 
L 146.486817 337.639075 
L 156.555379 337.642239 
L 166.623942 337.645285 
L 176.692505 337.648178 
L 186.761068 337.650884 
L 196.829631 337.653373 
L 206.898193 337.655617 
L 216.966756 337.65759 
L 227.035319 337.65927 
L 237.103882 337.660637 
L 247.172445 337.661676 
L 257.241007 337.662375 
L 267.30957 337.662726 
L 277.378133 337.662726 
L 287.446696 337.662373 
L 297.515258 337.661672 
L 307.583821 337.660632 
L 317.652384 337.659263 
L 327.720947 337.657582 
L 337.78951 337.655608 
L 347.858072 337.653363 
L 357.926635 337.650873 
L 367.995198 337.648165 
L 378.063761 337.645272 
L 388.132324 337.642225 
L 398.200886 337.63906 
L 408.269449 337.635812 
L 418.338012 337.632519 
L 428.406575 337.629219 
L 438.475138 337.625949 
L 448.5437 337.622748 
L 458.612263 337.619653 
L 468.680826 337.6167 
" style="fill:none;stroke:#ff0000;stroke-linecap:square;"/>
   </g>
   <g id="line2d_7">
    <path clip-path="url(#p11ca527cda)" d="M 76.006877 330.677799 
L 86.07544 330.679289 
L 96.144003 330.681093 
L 106.212565 330.68317 
L 116.281128 330.685474 
L 126.349691 330.687958 
L 136.418254 330.690571 
L 146.486817 330.693262 
L 156.555379 330.69598 
L 166.623942 330.698674 
L 176.692505 330.701296 
L 186.761068 330.703799 
L 196.829631 330.70614 
L 206.898193 330.70828 
L 216.966756 330.710183 
L 227.035319 330.711817 
L 237.103882 330.713155 
L 247.172445 330.714177 
L 257.241007 330.714865 
L 267.30957 330.71521 
L 277.378133 330.715204 
L 287.446696 330.714849 
L 297.515258 330.714149 
L 307.583821 330.713117 
L 317.652384 330.711768 
L 327.720947 330.710124 
L 337.78951 330.708211 
L 347.858072 330.706062 
L 357.926635 330.703711 
L 367.995198 330.7012 
L 378.063761 330.69857 
L 388.132324 330.695869 
L 398.200886 330.693145 
L 408.269449 330.690448 
L 418.338012 330.68783 
L 428.406575 330.685342 
L 438.475138 330.683033 
L 448.5437 330.680954 
L 458.612263 330.679147 
L 468.680826 330.677657 
" style="fill:none;stroke:#ff0000;stroke-linecap:square;"/>
   </g>
   <g id="line2d_8">
    <path clip-path="url(#p11ca527cda)" d="M 76.006877 327.773686 
L 86.07544 327.772692 
L 96.144003 327.770715 
L 106.212565 327.767895 
L 116.281128 327.764372 
L 126.349691 327.760287 
L 136.418254 327.755774 
L 146.486817 327.750969 
L 156.555379 327.745997 
L 166.623942 327.740981 
L 176.692505 327.736036 
L 186.761068 327.731268 
L 196.829631 327.726774 
L 206.898193 327.722644 
L 216.966756 327.718956 
L 227.035319 327.715777 
L 237.103882 327.713165 
L 247.172445 327.711166 
L 257.241007 327.709815 
L 267.30957 327.709134 
L 277.378133 327.709136 
L 287.446696 327.709821 
L 297.515258 327.711176 
L 307.583821 327.713178 
L 317.652384 327.715794 
L 327.720947 327.718976 
L 337.78951 327.722667 
L 347.858072 327.7268 
L 357.926635 327.731296 
L 367.995198 327.736067 
L 378.063761 327.741014 
L 388.132324 327.746032 
L 398.200886 327.751005 
L 408.269449 327.755813 
L 418.338012 327.760326 
L 428.406575 327.764412 
L 438.475138 327.767935 
L 448.5437 327.770755 
L 458.612263 327.772732 
L 468.680826 327.773726 
" style="fill:none;stroke:#ff0000;stroke-linecap:square;"/>
   </g>
   <g id="line2d_9">
    <path clip-path="url(#p11ca527cda)" d="M 76.006877 320.448759 
L 86.07544 320.447266 
L 96.144003 320.444236 
L 106.212565 320.439829 
L 116.281128 320.434215 
L 126.349691 320.427576 
L 136.418254 320.420102 
L 146.486817 320.411989 
L 156.555379 320.403441 
L 166.623942 320.394663 
L 176.692505 320.385861 
L 186.761068 320.377239 
L 196.829631 320.368994 
L 206.898193 320.361314 
L 216.966756 320.354374 
L 227.035319 320.34833 
L 237.103882 320.343322 
L 247.172445 320.339463 
L 257.241007 320.336842 
L 267.30957 320.335519 
L 277.378133 320.335524 
L 287.446696 320.336858 
L 297.515258 320.33949 
L 307.583821 320.34336 
L 317.652384 320.348379 
L 327.720947 320.354432 
L 337.78951 320.361383 
L 347.858072 320.369072 
L 357.926635 320.377325 
L 367.995198 320.385955 
L 378.063761 320.394764 
L 388.132324 320.403548 
L 398.200886 320.412102 
L 408.269449 320.420219 
L 418.338012 320.427698 
L 428.406575 320.434339 
L 438.475138 320.439954 
L 448.5437 320.444362 
L 458.612263 320.447391 
L 468.680826 320.448883 
" style="fill:none;stroke:#ff0000;stroke-linecap:square;"/>
   </g>
   <g id="line2d_10">
    <path clip-path="url(#p11ca527cda)" d="M 76.006877 313.496286 
L 86.07544 313.555055 
L 96.144003 313.613005 
L 106.212565 313.669921 
L 116.281128 313.725567 
L 126.349691 313.779693 
L 136.418254 313.83203 
L 146.486817 313.882297 
L 156.555379 313.930207 
L 166.623942 313.975465 
L 176.692505 314.017776 
L 186.761068 314.05685 
L 196.829631 314.092406 
L 206.898193 314.124176 
L 216.966756 314.151913 
L 227.035319 314.175393 
L 237.103882 314.194421 
L 247.172445 314.208838 
L 257.241007 314.218518 
L 267.30957 314.223377 
L 277.378133 314.223372 
L 287.446696 314.218504 
L 297.515258 314.208815 
L 307.583821 314.194389 
L 317.652384 314.175351 
L 327.720947 314.151862 
L 337.78951 314.124117 
L 347.858072 314.092337 
L 357.926635 314.056773 
L 367.995198 314.01769 
L 378.063761 313.97537 
L 388.132324 313.930104 
L 398.200886 313.882187 
L 408.269449 313.831912 
L 418.338012 313.779568 
L 428.406575 313.725437 
L 438.475138 313.669784 
L 448.5437 313.612864 
L 458.612263 313.554911 
L 468.680826 313.496139 
" style="fill:none;stroke:#ff0000;stroke-linecap:square;"/>
   </g>
   <g id="line2d_11">
    <path clip-path="url(#p11ca527cda)" d="M 76.006877 307.25015 
L 86.07544 307.378441 
L 96.144003 307.500287 
L 106.212565 307.615585 
L 116.281128 307.724248 
L 126.349691 307.826209 
L 136.418254 307.921412 
L 146.486817 308.00982 
L 156.555379 308.091404 
L 166.623942 308.16615 
L 176.692505 308.234053 
L 186.761068 308.295112 
L 196.829631 308.349336 
L 206.898193 308.396736 
L 216.966756 308.437326 
L 227.035319 308.47112 
L 237.103882 308.498133 
L 247.172445 308.518379 
L 257.241007 308.531867 
L 267.30957 308.538606 
L 277.378133 308.538599 
L 287.446696 308.531846 
L 297.515258 308.518343 
L 307.583821 308.498083 
L 317.652384 308.471056 
L 327.720947 308.437249 
L 337.78951 308.396647 
L 347.858072 308.349235 
L 357.926635 308.295001 
L 367.995198 308.233931 
L 378.063761 308.16602 
L 388.132324 308.091265 
L 398.200886 308.009673 
L 408.269449 307.921259 
L 418.338012 307.82605 
L 428.406575 307.724085 
L 438.475138 307.615417 
L 448.5437 307.500116 
L 458.612263 307.378267 
L 468.680826 307.249974 
" style="fill:none;stroke:#ff0000;stroke-linecap:square;"/>
   </g>
   <g id="line2d_12">
    <path clip-path="url(#p11ca527cda)" d="M 76.006877 296.488634 
L 86.07544 296.487793 
L 96.144003 296.486162 
L 106.212565 296.483874 
L 116.281128 296.481053 
L 126.349691 296.477818 
L 136.418254 296.474281 
L 146.486817 296.470546 
L 156.555379 296.466713 
L 166.623942 296.462871 
L 176.692505 296.459107 
L 186.761068 296.455496 
L 196.829631 296.452109 
L 206.898193 296.449008 
L 216.966756 296.446248 
L 227.035319 296.443878 
L 237.103882 296.441936 
L 247.172445 296.440455 
L 257.241007 296.439458 
L 267.30957 296.438962 
L 277.378133 296.438974 
L 287.446696 296.439495 
L 297.515258 296.440517 
L 307.583821 296.442022 
L 317.652384 296.443988 
L 327.720947 296.446381 
L 337.78951 296.449163 
L 347.858072 296.452285 
L 357.926635 296.455692 
L 367.995198 296.459322 
L 378.063761 296.463104 
L 388.132324 296.466962 
L 398.200886 296.47081 
L 408.269449 296.474557 
L 418.338012 296.478106 
L 428.406575 296.48135 
L 438.475138 296.484179 
L 448.5437 296.486473 
L 458.612263 296.488108 
L 468.680826 296.488951 
" style="fill:none;stroke:#ff0000;stroke-linecap:square;"/>
   </g>
   <g id="line2d_13">
    <path clip-path="url(#p11ca527cda)" d="M 76.006877 280.012862 
L 86.07544 280.030602 
L 96.144003 280.04815 
L 106.212565 280.065404 
L 116.281128 280.082262 
L 126.349691 280.098626 
L 136.418254 280.114397 
L 146.486817 280.129483 
L 156.555379 280.143791 
L 166.623942 280.157236 
L 176.692505 280.169735 
L 186.761068 280.181212 
L 196.829631 280.191598 
L 206.898193 280.200828 
L 216.966756 280.208845 
L 227.035319 280.2156 
L 237.103882 280.221051 
L 247.172445 280.225164 
L 257.241007 280.227915 
L 267.30957 280.229284 
L 277.378133 280.229265 
L 287.446696 280.227857 
L 297.515258 280.225069 
L 307.583821 280.220918 
L 317.652384 280.21543 
L 327.720947 280.208639 
L 337.78951 280.200587 
L 347.858072 280.191324 
L 357.926635 280.180906 
L 367.995198 280.169398 
L 378.063761 280.15687 
L 388.132324 280.143399 
L 398.200886 280.129065 
L 408.269449 280.113957 
L 418.338012 280.098165 
L 428.406575 280.081782 
L 438.475138 280.064908 
L 448.5437 280.047641 
L 458.612263 280.030082 
L 468.680826 280.012333 
" style="fill:none;stroke:#ff0000;stroke-linecap:square;"/>
   </g>
   <g id="line2d_14">
    <path clip-path="url(#p11ca527cda)" d="M 76.006877 261.957979 
L 86.07544 261.95717 
L 96.144003 261.955575 
L 106.212565 261.953305 
L 116.281128 261.950468 
L 126.349691 261.947174 
L 136.418254 261.943531 
L 146.486817 261.939645 
L 156.555379 261.935618 
L 166.623942 261.931547 
L 176.692505 261.927527 
L 186.761068 261.923643 
L 196.829631 261.919978 
L 206.898193 261.916604 
L 216.966756 261.913588 
L 227.035319 261.910988 
L 237.103882 261.908852 
L 247.172445 261.907219 
L 257.241007 261.906121 
L 267.30957 261.905575 
L 277.378133 261.905594 
L 287.446696 261.906176 
L 297.515258 261.907312 
L 307.583821 261.90898 
L 317.652384 261.911151 
L 327.720947 261.913786 
L 337.78951 261.916835 
L 347.858072 261.92024 
L 357.926635 261.923935 
L 367.995198 261.927846 
L 378.063761 261.931893 
L 388.132324 261.935987 
L 398.200886 261.940036 
L 408.269449 261.943941 
L 418.338012 261.947599 
L 428.406575 261.950907 
L 438.475138 261.953754 
L 448.5437 261.956033 
L 458.612263 261.957632 
L 468.680826 261.958442 
" style="fill:none;stroke:#ff0000;stroke-linecap:square;"/>
   </g>
   <g id="line2d_15">
    <path clip-path="url(#p11ca527cda)" d="M 76.006877 241.101283 
L 86.07544 241.116444 
L 96.144003 241.131781 
L 106.212565 241.147167 
L 116.281128 241.162478 
L 126.349691 241.177585 
L 136.418254 241.192364 
L 146.486817 241.206689 
L 156.555379 241.220441 
L 166.623942 241.233502 
L 176.692505 241.245762 
L 186.761068 241.257115 
L 196.829631 241.267465 
L 206.898193 241.276723 
L 216.966756 241.284808 
L 227.035319 241.291652 
L 237.103882 241.297194 
L 247.172445 241.301386 
L 257.241007 241.304193 
L 267.30957 241.30559 
L 277.378133 241.305564 
L 287.446696 241.304116 
L 297.515258 241.301258 
L 307.583821 241.297015 
L 317.652384 241.291424 
L 327.720947 241.284532 
L 337.78951 241.276399 
L 347.858072 241.267097 
L 357.926635 241.256703 
L 367.995198 241.245308 
L 378.063761 241.233009 
L 388.132324 241.219911 
L 398.200886 241.206126 
L 408.269449 241.191769 
L 418.338012 241.176963 
L 428.406575 241.161831 
L 438.475138 241.146498 
L 448.5437 241.131093 
L 458.612263 241.115742 
L 468.680826 241.100569 
" style="fill:none;stroke:#ff0000;stroke-linecap:square;"/>
   </g>
   <g id="line2d_16">
    <path clip-path="url(#p11ca527cda)" d="M 76.006877 219.008658 
L 86.07544 219.007506 
L 96.144003 219.005228 
L 106.212565 219.00197 
L 116.281128 218.997881 
L 126.349691 218.993112 
L 136.418254 218.987815 
L 146.486817 218.98214 
L 156.555379 218.976235 
L 166.623942 218.970245 
L 176.692505 218.964307 
L 186.761068 218.958553 
L 196.829631 218.953107 
L 206.898193 218.948081 
L 216.966756 218.943577 
L 227.035319 218.939686 
L 237.103882 218.936483 
L 247.172445 218.934031 
L 257.241007 218.932378 
L 267.30957 218.931555 
L 277.378133 218.931578 
L 287.446696 218.932447 
L 297.515258 218.934146 
L 307.583821 218.936642 
L 317.652384 218.939889 
L 327.720947 218.943823 
L 337.78951 218.948368 
L 347.858072 218.953433 
L 357.926635 218.958917 
L 367.995198 218.964706 
L 378.063761 218.970676 
L 388.132324 218.976697 
L 398.200886 218.982629 
L 408.269449 218.988328 
L 418.338012 218.993645 
L 428.406575 218.998432 
L 438.475138 219.002535 
L 448.5437 219.005803 
L 458.612263 219.008088 
L 468.680826 219.009244 
" style="fill:none;stroke:#ff0000;stroke-linecap:square;"/>
   </g>
   <g id="line2d_17">
    <path clip-path="url(#p11ca527cda)" d="M 76.006877 195.087865 
L 86.07544 195.107846 
L 96.144003 195.128321 
L 106.212565 195.149152 
L 116.281128 195.170182 
L 126.349691 195.191241 
L 136.418254 195.212146 
L 146.486817 195.232702 
L 156.555379 195.25271 
L 166.623942 195.271965 
L 176.692505 195.290263 
L 186.761068 195.307402 
L 196.829631 195.323191 
L 206.898193 195.337445 
L 216.966756 195.349998 
L 227.035319 195.360697 
L 237.103882 195.369415 
L 247.172445 195.376042 
L 257.241007 195.380498 
L 267.30957 195.382727 
L 277.378133 195.3827 
L 287.446696 195.380418 
L 297.515258 195.375908 
L 307.583821 195.369228 
L 317.652384 195.360459 
L 327.720947 195.349708 
L 337.78951 195.337106 
L 347.858072 195.322804 
L 357.926635 195.306969 
L 367.995198 195.289785 
L 378.063761 195.271445 
L 388.132324 195.252151 
L 398.200886 195.232106 
L 408.269449 195.211516 
L 418.338012 195.19058 
L 428.406575 195.169494 
L 438.475138 195.148439 
L 448.5437 195.127587 
L 458.612263 195.107095 
L 468.680826 195.0871 
" style="fill:none;stroke:#ff0000;stroke-linecap:square;"/>
   </g>
   <g id="line2d_18">
    <path clip-path="url(#p11ca527cda)" d="M 76.006877 178.358592 
L 86.07544 178.343792 
L 96.144003 178.312617 
L 106.212565 178.265274 
L 116.281128 178.202034 
L 126.349691 178.123243 
L 136.418254 178.029324 
L 146.486817 177.920786 
L 156.555379 177.798235 
L 166.623942 177.662384 
L 176.692505 177.514067 
L 186.761068 177.354261 
L 196.829631 177.184106 
L 206.898193 177.004932 
L 216.966756 176.818285 
L 227.035319 176.625955 
L 237.103882 176.43 
L 247.172445 176.232809 
L 257.241007 176.037613 
L 267.30957 175.861289 
L 277.378133 175.861269 
L 287.446696 176.037327 
L 297.515258 176.232498 
L 307.583821 176.429695 
L 317.652384 176.625666 
L 327.720947 176.818017 
L 337.78951 177.004688 
L 347.858072 177.183888 
L 357.926635 177.35407 
L 367.995198 177.513904 
L 378.063761 177.66225 
L 388.132324 177.79813 
L 398.200886 177.92071 
L 408.269449 178.029276 
L 418.338012 178.123224 
L 428.406575 178.202044 
L 438.475138 178.265311 
L 448.5437 178.312681 
L 458.612263 178.343881 
L 468.680826 178.358706 
" style="fill:none;stroke:#ff0000;stroke-linecap:square;"/>
   </g>
   <g id="line2d_19">
    <path clip-path="url(#p11ca527cda)" d="M 76.006877 172.156262 
L 86.07544 172.331491 
L 96.144003 172.527638 
L 106.212565 172.734741 
L 116.281128 172.94585 
L 126.349691 173.156277 
L 136.418254 173.362938 
L 146.486817 173.563886 
L 156.555379 173.758017 
L 166.623942 173.944881 
L 176.692505 174.12459 
L 186.761068 174.297764 
L 196.829631 174.465508 
L 206.898193 174.629392 
L 216.966756 174.791386 
L 227.035319 174.953728 
L 237.103882 175.118667 
L 247.172445 175.288055 
L 257.241007 175.46238 
L 267.30957 175.627534 
L 277.378133 175.627558 
L 287.446696 175.462677 
L 297.515258 175.288384 
L 307.583821 175.118999 
L 317.652384 174.954053 
L 327.720947 174.791703 
L 337.78951 174.629699 
L 347.858072 174.465806 
L 357.926635 174.298052 
L 367.995198 174.124869 
L 378.063761 173.94515 
L 388.132324 173.758275 
L 398.200886 173.564133 
L 408.269449 173.36317 
L 418.338012 173.156492 
L 428.406575 172.946042 
L 438.475138 172.734904 
L 448.5437 172.527763 
L 458.612263 172.331568 
L 468.680826 172.156278 
" style="fill:none;stroke:#ff0000;stroke-linecap:square;"/>
   </g>
   <g id="line2d_20">
    <path clip-path="url(#p11ca527cda)" d="M 76.006877 168.967488 
L 86.07544 168.975253 
L 96.144003 169.01117 
L 106.212565 169.089175 
L 116.281128 169.214893 
L 126.349691 169.386705 
L 136.418254 169.598086 
L 146.486817 169.840157 
L 156.555379 170.103581 
L 166.623942 170.379579 
L 176.692505 170.660249 
L 186.761068 170.938496 
L 196.829631 171.207815 
L 206.898193 171.462037 
L 216.966756 171.695158 
L 227.035319 171.90127 
L 237.103882 172.074661 
L 247.172445 172.21007 
L 257.241007 172.303062 
L 267.30957 172.350418 
L 277.378133 172.350447 
L 287.446696 172.303149 
L 297.515258 172.210214 
L 307.583821 172.07486 
L 317.652384 171.901522 
L 327.720947 171.695459 
L 337.78951 171.462385 
L 347.858072 171.208205 
L 357.926635 170.938924 
L 367.995198 170.66071 
L 378.063761 170.380068 
L 388.132324 170.104091 
L 398.200886 169.84068 
L 408.269449 169.598612 
L 418.338012 169.387222 
L 428.406575 169.215386 
L 438.475138 169.089633 
L 448.5437 169.011589 
L 458.612263 168.975637 
L 468.680826 168.967853 
" style="fill:none;stroke:#ff0000;stroke-linecap:square;"/>
   </g>
   <g id="line2d_21">
    <path clip-path="url(#p11ca527cda)" d="M 76.006877 162.589819 
L 86.07544 162.754914 
L 96.144003 162.838552 
L 106.212565 162.836781 
L 116.281128 162.751015 
L 126.349691 162.587741 
L 136.418254 162.356848 
L 146.486817 162.069578 
L 156.555379 161.736977 
L 166.623942 161.369138 
L 176.692505 160.975103 
L 186.761068 160.563146 
L 196.829631 160.141297 
L 206.898193 159.718019 
L 216.966756 159.303059 
L 227.035319 158.908508 
L 237.103882 158.54999 
L 247.172445 158.247552 
L 257.241007 158.025032 
L 267.30957 157.906 
L 277.378133 157.90588 
L 287.446696 158.024694 
L 297.515258 158.247045 
L 307.583821 158.549365 
L 317.652384 158.907807 
L 327.720947 159.302313 
L 337.78951 159.717247 
L 347.858072 160.140514 
L 357.926635 160.562361 
L 367.995198 160.974326 
L 378.063761 161.368376 
L 388.132324 161.736238 
L 398.200886 162.068874 
L 408.269449 162.356191 
L 418.338012 162.587146 
L 428.406575 162.750501 
L 438.475138 162.836365 
L 448.5437 162.838248 
L 458.612263 162.754728 
L 468.680826 162.589746 
" style="fill:none;stroke:#ff0000;stroke-linecap:square;"/>
   </g>
   <g id="line2d_22">
    <path clip-path="url(#p11ca527cda)" d="M 76.006877 141.446133 
L 86.07544 141.977509 
L 96.144003 142.64283 
L 106.212565 143.331333 
L 116.281128 144.022961 
L 126.349691 144.711392 
L 136.418254 145.3936 
L 146.486817 146.067546 
L 156.555379 146.731421 
L 166.623942 147.383308 
L 176.692505 148.020928 
L 186.761068 148.641393 
L 196.829631 149.240877 
L 206.898193 149.814164 
L 216.966756 150.353994 
L 227.035319 150.850168 
L 237.103882 151.288483 
L 247.172445 151.649935 
L 257.241007 151.911418 
L 267.30957 152.049824 
L 277.378133 152.049955 
L 287.446696 151.91179 
L 297.515258 151.6505 
L 307.583821 151.289189 
L 317.652384 150.850973 
L 327.720947 150.354869 
L 337.78951 149.81509 
L 347.858072 149.241841 
L 357.926635 148.642387 
L 367.995198 148.021946 
L 378.063761 147.384346 
L 388.132324 146.732477 
L 398.200886 146.068616 
L 408.269449 145.394684 
L 418.338012 144.712486 
L 428.406575 144.024062 
L 438.475138 143.332434 
L 448.5437 142.643909 
L 458.612263 141.978478 
L 468.680826 141.446532 
" style="fill:none;stroke:#ff0000;stroke-linecap:square;"/>
   </g>
   <g id="line2d_23">
    <path clip-path="url(#p11ca527cda)" d="M 76.006877 140.216905 
L 86.07544 139.679666 
L 96.144003 138.997512 
L 106.212565 138.281143 
L 116.281128 137.550502 
L 126.349691 136.81174 
L 136.418254 136.067653 
L 146.486817 135.319982 
L 156.555379 134.570149 
L 166.623942 133.819594 
L 176.692505 133.070004 
L 186.761068 132.323558 
L 196.829631 131.583274 
L 206.898193 130.853564 
L 216.966756 130.141184 
L 227.035319 129.456952 
L 237.103882 128.81882 
L 247.172445 128.257012 
L 257.241007 127.820266 
L 267.30957 127.574319 
L 277.378133 127.57401 
L 287.446696 127.819442 
L 297.515258 128.255863 
L 307.583821 128.817489 
L 317.652384 129.455521 
L 327.720947 130.139694 
L 337.78951 130.852038 
L 347.858072 131.581726 
L 357.926635 132.321994 
L 367.995198 133.068429 
L 378.063761 133.818013 
L 388.132324 134.568563 
L 398.200886 135.318393 
L 408.269449 136.066064 
L 418.338012 136.810152 
L 428.406575 137.548918 
L 438.475138 138.279571 
L 448.5437 138.995972 
L 458.612263 139.678246 
L 468.680826 140.216069 
" style="fill:none;stroke:#ff0000;stroke-linecap:square;"/>
   </g>
   <g id="line2d_24">
    <path clip-path="url(#p11ca527cda)" d="M 76.006877 108.373126 
L 86.07544 108.970877 
L 96.144003 109.760639 
L 106.212565 110.596057 
L 116.281128 111.445107 
L 126.349691 112.297591 
L 136.418254 113.149092 
L 146.486817 113.99713 
L 156.555379 114.839916 
L 166.623942 115.675822 
L 176.692505 116.503063 
L 186.761068 117.319411 
L 196.829631 118.121825 
L 206.898193 118.905886 
L 216.966756 119.664837 
L 227.035319 120.387865 
L 237.103882 121.057024 
L 247.172445 121.642096 
L 257.241007 122.094348 
L 267.30957 122.348049 
L 277.378133 122.348358 
L 287.446696 122.095175 
L 297.515258 121.643249 
L 307.583821 121.058359 
L 317.652384 120.389301 
L 327.720947 119.666333 
L 337.78951 118.907419 
L 347.858072 118.123381 
L 357.926635 117.320982 
L 367.995198 116.504644 
L 378.063761 115.677409 
L 388.132324 114.841506 
L 398.200886 113.99872 
L 408.269449 113.150679 
L 418.338012 112.29917 
L 428.406575 111.446669 
L 438.475138 110.597588 
L 448.5437 109.762101 
L 458.612263 108.972146 
L 468.680826 108.373642 
" style="fill:none;stroke:#ff0000;stroke-linecap:square;"/>
   </g>
   <g id="line2d_25">
    <path clip-path="url(#p11ca527cda)" d="M 76.006877 106.598028 
L 86.07544 106.004468 
L 96.144003 105.210959 
L 106.212565 104.363845 
L 116.281128 103.495116 
L 126.349691 102.614897 
L 136.418254 101.727497 
L 146.486817 100.835237 
L 156.555379 99.939681 
L 166.623942 99.042145 
L 176.692505 98.143984 
L 186.761068 97.246831 
L 196.829631 96.352894 
L 206.898193 95.465428 
L 216.966756 94.589596 
L 227.035319 93.73418 
L 237.103882 92.915233 
L 247.172445 92.16419 
L 257.241007 91.544662 
L 267.30957 91.171851 
L 277.378133 91.171448 
L 287.446696 91.543684 
L 297.515258 92.162951 
L 307.583821 92.913887 
L 317.652384 93.732788 
L 327.720947 94.588182 
L 337.78951 95.464004 
L 347.858072 96.351466 
L 357.926635 97.245403 
L 367.995198 98.142558 
L 378.063761 99.040724 
L 388.132324 99.938266 
L 398.200886 100.833831 
L 408.269449 101.726103 
L 418.338012 102.613518 
L 428.406575 103.49376 
L 438.475138 104.362529 
L 448.5437 105.209718 
L 458.612263 106.003428 
L 468.680826 106.597748 
" style="fill:none;stroke:#ff0000;stroke-linecap:square;"/>
   </g>
   <g id="patch_3">
    <path d="M 518.4 388.8 
L 518.4 43.2 
" style="fill:none;stroke:#000000;stroke-linecap:square;stroke-linejoin:miter;"/>
   </g>
   <g id="patch_4">
    <path d="M 72 43.2 
L 518.4 43.2 
" style="fill:none;stroke:#000000;stroke-linecap:square;stroke-linejoin:miter;"/>
   </g>
   <g id="patch_5">
    <path d="M 72 388.8 
L 72 43.2 
" style="fill:none;stroke:#000000;stroke-linecap:square;stroke-linejoin:miter;"/>
   </g>
   <g id="patch_6">
    <path d="M 72 388.8 
L 518.4 388.8 
" style="fill:none;stroke:#000000;stroke-linecap:square;stroke-linejoin:miter;"/>
   </g>
   <g id="matplotlib.axis_1">
    <g id="xtick_1">
     <g id="line2d_26">
      <defs>
       <path d="M 0 0 
L 0 -4 
" id="m822b0a47ec" style="stroke:#000000;stroke-width:0.5;"/>
      </defs>
      <g>
       <use style="stroke:#000000;stroke-width:0.5;" x="72.0" xlink:href="#m822b0a47ec" y="388.8"/>
      </g>
     </g>
     <g id="line2d_27">
      <defs>
       <path d="M 0 0 
L 0 4 
" id="m34c91d3767" style="stroke:#000000;stroke-width:0.5;"/>
      </defs>
      <g>
       <use style="stroke:#000000;stroke-width:0.5;" x="72.0" xlink:href="#m34c91d3767" y="43.2"/>
      </g>
     </g>
     <g id="text_1">
      <!-- $0$ -->
      <defs>
       <path d="M 42 31.640625 
C 42 37.75 41.90625 48.125 37.703125 56.109375 
C 34 63.109375 28.09375 65.59375 22.90625 65.59375 
C 18.09375 65.59375 12 63.40625 8.203125 56.203125 
C 4.203125 48.71875 3.796875 39.4375 3.796875 31.640625 
C 3.796875 25.953125 3.90625 17.28125 7 9.671875 
C 11.296875 -0.609375 19 -2 22.90625 -2 
C 27.5 -2 34.5 -0.109375 38.59375 9.375 
C 41.59375 16.28125 42 24.359375 42 31.640625 
M 22.90625 -0.40625 
C 16.5 -0.40625 12.703125 5.078125 11.296875 12.6875 
C 10.203125 18.5625 10.203125 27.15625 10.203125 32.75 
C 10.203125 40.4375 10.203125 46.828125 11.5 52.921875 
C 13.40625 61.390625 19 64 22.90625 64 
C 27 64 32.296875 61.296875 34.203125 53.125 
C 35.5 47.4375 35.59375 40.734375 35.59375 32.75 
C 35.59375 26.25 35.59375 18.265625 34.40625 12.375 
C 32.296875 1.484375 26.40625 -0.40625 22.90625 -0.40625 
" id="CMR17-48"/>
      </defs>
      <g transform="translate(68.0980064991 403.869588287)scale(0.16 -0.16)">
       <use transform="scale(0.9962640099626402)" xlink:href="#CMR17-48"/>
      </g>
     </g>
    </g>
    <g id="xtick_2">
     <g id="line2d_28">
      <g>
       <use style="stroke:#000000;stroke-width:0.5;" x="135.771428571" xlink:href="#m822b0a47ec" y="388.8"/>
      </g>
     </g>
     <g id="line2d_29">
      <g>
       <use style="stroke:#000000;stroke-width:0.5;" x="135.771428571" xlink:href="#m34c91d3767" y="43.2"/>
      </g>
     </g>
     <g id="text_2">
      <!-- $1000000$ -->
      <defs>
       <path d="M 26.59375 63.40625 
C 26.59375 65.5 26.5 65.5 25.09375 65.5 
C 21.203125 61.1875 15.296875 59.796875 9.703125 59.796875 
C 9.40625 59.796875 8.90625 59.796875 8.796875 59.5 
C 8.703125 59.296875 8.703125 59.09375 8.703125 57 
C 11.796875 57 17 57.59375 21 59.984375 
L 21 7.203125 
C 21 3.6875 20.796875 2.5 12.203125 2.5 
L 9.203125 2.5 
L 9.203125 0 
C 14 0 19 0 23.796875 0 
C 28.59375 0 33.59375 0 38.40625 0 
L 38.40625 2.5 
L 35.40625 2.5 
C 26.796875 2.5 26.59375 3.59375 26.59375 7.15625 
z
" id="CMR17-49"/>
      </defs>
      <g transform="translate(108.457474065 403.869588287)scale(0.16 -0.16)">
       <use transform="scale(0.9962640099626402)" xlink:href="#CMR17-49"/>
       <use transform="translate(45.69047711706103 0.0)scale(0.9962640099626402)" xlink:href="#CMR17-48"/>
       <use transform="translate(91.38095423412206 0.0)scale(0.9962640099626402)" xlink:href="#CMR17-48"/>
       <use transform="translate(137.07143135118307 0.0)scale(0.9962640099626402)" xlink:href="#CMR17-48"/>
       <use transform="translate(182.76190846824412 0.0)scale(0.9962640099626402)" xlink:href="#CMR17-48"/>
       <use transform="translate(228.45238558530514 0.0)scale(0.9962640099626402)" xlink:href="#CMR17-48"/>
       <use transform="translate(274.14286270236613 0.0)scale(0.9962640099626402)" xlink:href="#CMR17-48"/>
      </g>
     </g>
    </g>
    <g id="xtick_3">
     <g id="line2d_30">
      <g>
       <use style="stroke:#000000;stroke-width:0.5;" x="199.542857143" xlink:href="#m822b0a47ec" y="388.8"/>
      </g>
     </g>
     <g id="line2d_31">
      <g>
       <use style="stroke:#000000;stroke-width:0.5;" x="199.542857143" xlink:href="#m34c91d3767" y="43.2"/>
      </g>
     </g>
     <g id="text_3">
      <!-- $2000000$ -->
      <defs>
       <path d="M 41.703125 15.453125 
L 39.90625 15.453125 
C 38.90625 8.375 38.09375 7.171875 37.703125 6.5625 
C 37.203125 5.765625 30 5.765625 28.59375 5.765625 
L 9.40625 5.765625 
C 13 9.671875 20 16.75 28.5 24.953125 
C 34.59375 30.734375 41.703125 37.53125 41.703125 47.421875 
C 41.703125 59.21875 32.296875 66 21.796875 66 
C 10.796875 66 4.09375 56.3125 4.09375 47.34375 
C 4.09375 43.4375 7 42.9375 8.203125 42.9375 
C 9.203125 42.9375 12.203125 43.546875 12.203125 47.03125 
C 12.203125 50.109375 9.59375 51 8.203125 51 
C 7.59375 51 7 50.90625 6.59375 50.703125 
C 8.5 59.21875 14.296875 63.40625 20.40625 63.40625 
C 29.09375 63.40625 34.796875 56.515625 34.796875 47.421875 
C 34.796875 38.734375 29.703125 31.25 24 24.75 
L 4.09375 2.28125 
L 4.09375 0 
L 39.296875 0 
z
" id="CMR17-50"/>
      </defs>
      <g transform="translate(172.228902636 403.869588287)scale(0.16 -0.16)">
       <use transform="scale(0.9962640099626402)" xlink:href="#CMR17-50"/>
       <use transform="translate(45.69047711706103 0.0)scale(0.9962640099626402)" xlink:href="#CMR17-48"/>
       <use transform="translate(91.38095423412206 0.0)scale(0.9962640099626402)" xlink:href="#CMR17-48"/>
       <use transform="translate(137.07143135118307 0.0)scale(0.9962640099626402)" xlink:href="#CMR17-48"/>
       <use transform="translate(182.76190846824412 0.0)scale(0.9962640099626402)" xlink:href="#CMR17-48"/>
       <use transform="translate(228.45238558530514 0.0)scale(0.9962640099626402)" xlink:href="#CMR17-48"/>
       <use transform="translate(274.14286270236613 0.0)scale(0.9962640099626402)" xlink:href="#CMR17-48"/>
      </g>
     </g>
    </g>
    <g id="xtick_4">
     <g id="line2d_32">
      <g>
       <use style="stroke:#000000;stroke-width:0.5;" x="263.314285714" xlink:href="#m822b0a47ec" y="388.8"/>
      </g>
     </g>
     <g id="line2d_33">
      <g>
       <use style="stroke:#000000;stroke-width:0.5;" x="263.314285714" xlink:href="#m34c91d3767" y="43.2"/>
      </g>
     </g>
     <g id="text_4">
      <!-- $3000000$ -->
      <defs>
       <path d="M 22.09375 33.703125 
C 31 33.703125 34.90625 25.96875 34.90625 17.03125 
C 34.90625 5 28.5 0.390625 22.703125 0.390625 
C 17.40625 0.390625 8.796875 3.03125 6.09375 10.828125 
C 6.59375 10.625 7.09375 10.625 7.59375 10.625 
C 10 10.625 11.796875 12.21875 11.796875 14.8125 
C 11.796875 17.703125 9.59375 19 7.59375 19 
C 5.90625 19 3.296875 18.203125 3.296875 14.46875 
C 3.296875 5.234375 12.296875 -2 22.90625 -2 
C 34 -2 42.5 6.71875 42.5 16.953125 
C 42.5 26.671875 34.5 33.6875 25 34.796875 
C 32.59375 36.375 39.90625 43.0625 39.90625 52.015625 
C 39.90625 59.6875 32 65.296875 23 65.296875 
C 13.90625 65.296875 5.90625 59.828125 5.90625 52.015625 
C 5.90625 48.59375 8.5 48 9.796875 48 
C 11.90625 48 13.703125 49.296875 13.703125 51.890625 
C 13.703125 54.46875 11.90625 55.765625 9.796875 55.765625 
C 9.40625 55.765625 8.90625 55.765625 8.5 55.578125 
C 11.40625 61.859375 19.296875 63 22.796875 63 
C 26.296875 63 32.90625 61.328125 32.90625 51.875 
C 32.90625 49.109375 32.5 44.1875 29.09375 39.84375 
C 26.09375 36 22.703125 36 19.40625 35.6875 
C 18.90625 35.6875 16.59375 35.453125 16.203125 35.453125 
C 15.5 35.359375 15.09375 35.265625 15.09375 34.5 
C 15.09375 33.796875 15.203125 33.703125 17.203125 33.703125 
z
" id="CMR17-51"/>
      </defs>
      <g transform="translate(236.000331208 403.869588287)scale(0.16 -0.16)">
       <use transform="scale(0.9962640099626402)" xlink:href="#CMR17-51"/>
       <use transform="translate(45.69047711706103 0.0)scale(0.9962640099626402)" xlink:href="#CMR17-48"/>
       <use transform="translate(91.38095423412206 0.0)scale(0.9962640099626402)" xlink:href="#CMR17-48"/>
       <use transform="translate(137.07143135118307 0.0)scale(0.9962640099626402)" xlink:href="#CMR17-48"/>
       <use transform="translate(182.76190846824412 0.0)scale(0.9962640099626402)" xlink:href="#CMR17-48"/>
       <use transform="translate(228.45238558530514 0.0)scale(0.9962640099626402)" xlink:href="#CMR17-48"/>
       <use transform="translate(274.14286270236613 0.0)scale(0.9962640099626402)" xlink:href="#CMR17-48"/>
      </g>
     </g>
    </g>
    <g id="xtick_5">
     <g id="line2d_34">
      <g>
       <use style="stroke:#000000;stroke-width:0.5;" x="327.085714286" xlink:href="#m822b0a47ec" y="388.8"/>
      </g>
     </g>
     <g id="line2d_35">
      <g>
       <use style="stroke:#000000;stroke-width:0.5;" x="327.085714286" xlink:href="#m34c91d3767" y="43.2"/>
      </g>
     </g>
     <g id="text_5">
      <!-- $4000000$ -->
      <defs>
       <path d="M 33.59375 64.40625 
C 33.59375 66.5 33.5 66.5 31.703125 66.5 
L 2 19.59375 
L 2 17 
L 27.796875 17 
L 27.796875 7.140625 
C 27.796875 3.5 27.59375 2.5 20.59375 2.5 
L 18.703125 2.5 
L 18.703125 0 
C 21.90625 0 27.296875 0 30.703125 0 
C 34.09375 0 39.5 0 42.703125 0 
L 42.703125 2.5 
L 40.796875 2.5 
C 33.796875 2.5 33.59375 3.5 33.59375 7.140625 
L 33.59375 17 
L 43.796875 17 
L 43.796875 19.59375 
L 33.59375 19.59375 
z
M 28.09375 57.859375 
L 28.09375 19.59375 
L 4 19.59375 
z
" id="CMR17-52"/>
      </defs>
      <g transform="translate(299.771759779 403.869588287)scale(0.16 -0.16)">
       <use transform="scale(0.9962640099626402)" xlink:href="#CMR17-52"/>
       <use transform="translate(45.69047711706103 0.0)scale(0.9962640099626402)" xlink:href="#CMR17-48"/>
       <use transform="translate(91.38095423412206 0.0)scale(0.9962640099626402)" xlink:href="#CMR17-48"/>
       <use transform="translate(137.07143135118307 0.0)scale(0.9962640099626402)" xlink:href="#CMR17-48"/>
       <use transform="translate(182.76190846824412 0.0)scale(0.9962640099626402)" xlink:href="#CMR17-48"/>
       <use transform="translate(228.45238558530514 0.0)scale(0.9962640099626402)" xlink:href="#CMR17-48"/>
       <use transform="translate(274.14286270236613 0.0)scale(0.9962640099626402)" xlink:href="#CMR17-48"/>
      </g>
     </g>
    </g>
    <g id="xtick_6">
     <g id="line2d_36">
      <g>
       <use style="stroke:#000000;stroke-width:0.5;" x="390.857142857" xlink:href="#m822b0a47ec" y="388.8"/>
      </g>
     </g>
     <g id="line2d_37">
      <g>
       <use style="stroke:#000000;stroke-width:0.5;" x="390.857142857" xlink:href="#m34c91d3767" y="43.2"/>
      </g>
     </g>
     <g id="text_6">
      <!-- $5000000$ -->
      <defs>
       <path d="M 11.40625 57.6875 
C 12.40625 57.28125 16.5 56 20.703125 56 
C 30 56 35.09375 61.109375 38 64.0625 
C 38 64.953125 38 65.5 37.40625 65.5 
C 37.296875 65.5 37.09375 65.5 36.296875 65.046875 
C 32.796875 63.40625 28.703125 62.078125 23.703125 62.078125 
C 20.703125 62.078125 16.203125 62.484375 11.296875 64.671875 
C 10.203125 65.171875 10 65.171875 9.90625 65.171875 
C 9.40625 65.171875 9.296875 65.0625 9.296875 63.078125 
L 9.296875 34.421875 
C 9.296875 32.640625 9.296875 32.140625 10.296875 32.140625 
C 10.796875 32.140625 11 32.34375 11.5 33.03125 
C 14.703125 37.515625 19.09375 39.40625 24.09375 39.40625 
C 27.59375 39.40625 35.09375 37.21875 35.09375 20.140625 
C 35.09375 16.953125 35.09375 11.171875 32.09375 6.578125 
C 29.59375 2.484375 25.703125 0.390625 21.40625 0.390625 
C 14.796875 0.390625 8.09375 5 6.296875 12.71875 
C 6.703125 12.609375 7.5 12.421875 7.90625 12.421875 
C 9.203125 12.421875 11.703125 13.125 11.703125 16.21875 
C 11.703125 18.90625 9.796875 20 7.90625 20 
C 5.59375 20 4.09375 18.59375 4.09375 15.796875 
C 4.09375 7.09375 11 -2 21.59375 -2 
C 31.90625 -2 41.703125 6.875 41.703125 19.75 
C 41.703125 31.71875 33.90625 41 24.203125 41 
C 19.09375 41 14.796875 39.109375 11.40625 35.53125 
z
" id="CMR17-53"/>
      </defs>
      <g transform="translate(363.543188351 403.869588287)scale(0.16 -0.16)">
       <use transform="scale(0.9962640099626402)" xlink:href="#CMR17-53"/>
       <use transform="translate(45.69047711706103 0.0)scale(0.9962640099626402)" xlink:href="#CMR17-48"/>
       <use transform="translate(91.38095423412206 0.0)scale(0.9962640099626402)" xlink:href="#CMR17-48"/>
       <use transform="translate(137.07143135118307 0.0)scale(0.9962640099626402)" xlink:href="#CMR17-48"/>
       <use transform="translate(182.76190846824412 0.0)scale(0.9962640099626402)" xlink:href="#CMR17-48"/>
       <use transform="translate(228.45238558530514 0.0)scale(0.9962640099626402)" xlink:href="#CMR17-48"/>
       <use transform="translate(274.14286270236613 0.0)scale(0.9962640099626402)" xlink:href="#CMR17-48"/>
      </g>
     </g>
    </g>
    <g id="xtick_7">
     <g id="line2d_38">
      <g>
       <use style="stroke:#000000;stroke-width:0.5;" x="454.628571429" xlink:href="#m822b0a47ec" y="388.8"/>
      </g>
     </g>
     <g id="line2d_39">
      <g>
       <use style="stroke:#000000;stroke-width:0.5;" x="454.628571429" xlink:href="#m34c91d3767" y="43.2"/>
      </g>
     </g>
     <g id="text_7">
      <!-- $6000000$ -->
      <defs>
       <path d="M 10.59375 34 
C 10.59375 57.65625 21.796875 63 28.296875 63 
C 30.40625 63 35.5 62.640625 37.5 59 
C 35.90625 59 32.90625 59 32.90625 55.515625 
C 32.90625 52.828125 35.09375 51.921875 36.5 51.921875 
C 37.40625 51.921875 40.09375 52.3125 40.09375 55.625 
C 40.09375 61.78125 35.09375 65.296875 28.203125 65.296875 
C 16.296875 65.296875 3.796875 52.96875 3.796875 31 
C 3.796875 3.953125 15.09375 -2 23.09375 -2 
C 32.796875 -2 42 6.671875 42 20.046875 
C 42 32.515625 33.90625 41.59375 23.703125 41.59375 
C 17.59375 41.59375 13.09375 37.609375 10.59375 30.625 
z
M 23.09375 0.390625 
C 10.796875 0.390625 10.796875 18.75 10.796875 22.4375 
C 10.796875 29.625 14.203125 40 23.5 40 
C 25.203125 40 30.09375 40 33.40625 33.125 
C 35.203125 29.21875 35.203125 25.140625 35.203125 20.140625 
C 35.203125 14.75 35.203125 10.78125 33.09375 6.78125 
C 30.90625 2.671875 27.703125 0.390625 23.09375 0.390625 
" id="CMR17-54"/>
      </defs>
      <g transform="translate(427.314616922 403.869588287)scale(0.16 -0.16)">
       <use transform="scale(0.9962640099626402)" xlink:href="#CMR17-54"/>
       <use transform="translate(45.69047711706103 0.0)scale(0.9962640099626402)" xlink:href="#CMR17-48"/>
       <use transform="translate(91.38095423412206 0.0)scale(0.9962640099626402)" xlink:href="#CMR17-48"/>
       <use transform="translate(137.07143135118307 0.0)scale(0.9962640099626402)" xlink:href="#CMR17-48"/>
       <use transform="translate(182.76190846824412 0.0)scale(0.9962640099626402)" xlink:href="#CMR17-48"/>
       <use transform="translate(228.45238558530514 0.0)scale(0.9962640099626402)" xlink:href="#CMR17-48"/>
       <use transform="translate(274.14286270236613 0.0)scale(0.9962640099626402)" xlink:href="#CMR17-48"/>
      </g>
     </g>
    </g>
    <g id="xtick_8">
     <g id="line2d_40">
      <g>
       <use style="stroke:#000000;stroke-width:0.5;" x="518.4" xlink:href="#m822b0a47ec" y="388.8"/>
      </g>
     </g>
     <g id="line2d_41">
      <g>
       <use style="stroke:#000000;stroke-width:0.5;" x="518.4" xlink:href="#m34c91d3767" y="43.2"/>
      </g>
     </g>
     <g id="text_8">
      <!-- $7000000$ -->
      <defs>
       <path d="M 45.09375 61.578125 
L 45.09375 63.765625 
L 21.59375 63.765625 
C 9.90625 63.765625 9.703125 65.078125 9.296875 67 
L 7.5 67 
L 4.59375 48.34375 
L 6.40625 48.34375 
C 6.703125 50.234375 7.40625 55.3125 8.59375 57.203125 
C 9.203125 58 16.59375 58 18.296875 58 
L 40.296875 58 
L 29.203125 41.578125 
C 21.796875 30.53125 16.703125 15.609375 16.703125 2.578125 
C 16.703125 1.390625 16.703125 -2 20.296875 -2 
C 23.90625 -2 23.90625 1.390625 23.90625 2.671875 
L 23.90625 7.265625 
C 23.90625 23.5625 26.703125 34.3125 31.296875 41.1875 
z
" id="CMR17-55"/>
      </defs>
      <g transform="translate(491.086045493 403.869588287)scale(0.16 -0.16)">
       <use transform="scale(0.9962640099626402)" xlink:href="#CMR17-55"/>
       <use transform="translate(45.69047711706103 0.0)scale(0.9962640099626402)" xlink:href="#CMR17-48"/>
       <use transform="translate(91.38095423412206 0.0)scale(0.9962640099626402)" xlink:href="#CMR17-48"/>
       <use transform="translate(137.07143135118307 0.0)scale(0.9962640099626402)" xlink:href="#CMR17-48"/>
       <use transform="translate(182.76190846824412 0.0)scale(0.9962640099626402)" xlink:href="#CMR17-48"/>
       <use transform="translate(228.45238558530514 0.0)scale(0.9962640099626402)" xlink:href="#CMR17-48"/>
       <use transform="translate(274.14286270236613 0.0)scale(0.9962640099626402)" xlink:href="#CMR17-48"/>
      </g>
     </g>
    </g>
    <g id="text_9">
     <!-- wektor falowy q [m^-1] -->
     <defs>
      <path d="M 14.796875 69 
L 7.40625 69 
L 7.40625 0 
L 14.796875 0 
z
" id="CMSS17-108"/>
      <path d="M 65.90625 23 
C 67.59375 23 69.40625 23 69.40625 25 
C 69.40625 27 67.59375 27 65.90625 27 
L 11.796875 27 
C 10.09375 27 8.296875 27 8.296875 25 
C 8.296875 23 10.09375 23 11.796875 23 
z
" id="CMSY10-0"/>
      <path d="M 37.59375 27.984375 
C 37.59375 37.375 30.90625 43.875 21.90625 43.875 
C 17.5 43.875 12.703125 43.078125 7.203125 39.890625 
L 7.796875 33.359375 
C 10.296875 35.125 14.59375 38 21.796875 38 
C 26.90625 38 30 34.0625 30 27.84375 
L 30 24 
C 14 24 4 19.34375 4 11.34375 
C 4 7.203125 6.5 -1 14.796875 -1 
C 16.296875 -1 24.40625 -1 30.203125 3.390625 
L 30.203125 -0.296875 
L 37.59375 -0.296875 
z
M 30 12.75 
C 30 10.953125 30 8.5625 27 6.78125 
C 24.40625 5.078125 21.09375 5.078125 19.703125 5.078125 
C 14.703125 5.078125 11.296875 7.984375 11.296875 11.625 
C 11.296875 18.921875 26.90625 18.921875 30 18.921875 
z
" id="CMSS17-97"/>
      <path d="M 62.703125 43 
L 55.09375 43 
L 49.796875 25.015625 
C 48.703125 21.21875 45.59375 10.703125 45.203125 5.796875 
L 45.09375 5.796875 
C 44.90625 8.8125 43.203125 16 40.40625 25.515625 
L 35.296875 43 
L 28.40625 43 
L 23.40625 25.90625 
C 20.90625 17.203125 19 9.796875 18.796875 5.796875 
L 18.703125 5.796875 
C 18.296875 11.703125 14.203125 25.515625 13.59375 27.703125 
L 9.09375 43 
L 1.296875 43 
L 14.296875 0 
L 21.90625 0 
C 27.09375 17.125 31.09375 30.359375 31.40625 37.03125 
C 31.59375 33.75 33.296875 26.671875 34.296875 23.1875 
L 40.90625 0 
L 49.703125 0 
z
" id="CMSS17-119"/>
      <path d="M 26.5 26.375 
L 42 42.796875 
L 32.40625 42.796875 
L 14.90625 24.28125 
L 14.90625 69 
L 7.5 69 
L 7.5 0 
L 14.796875 0 
L 14.796875 13.9375 
L 21.5 21 
L 35.59375 0 
L 44.09375 0 
z
" id="CMSS17-107"/>
      <path d="M 41.796875 43 
L 34 43 
C 25.5 20.21875 22.59375 10.96875 22.40625 5.984375 
L 22.296875 5.984375 
C 22 10.875 17.59375 22.8125 14.09375 31.359375 
L 9.40625 43 
L 1.296875 43 
L 19 0.203125 
C 17.90625 -2.78125 16.296875 -7.265625 15.796875 -8.265625 
C 13.59375 -13.828125 12.09375 -13.828125 10.5 -13.828125 
C 10.09375 -13.828125 6.90625 -13.828125 3.296875 -12.640625 
L 3.90625 -19.203125 
C 6.40625 -19.703125 8.90625 -20 10.703125 -20 
C 13.203125 -20 18.203125 -20 22.796875 -7.765625 
z
" id="CMSS17-121"/>
      <path d="M 14.90625 21.296875 
C 14.90625 30.703125 21.796875 37 30.59375 37 
L 30.59375 43.578125 
C 24.203125 43.578125 18.203125 40.390625 14.59375 35.203125 
L 14.59375 43.09375 
L 7.5 43.09375 
L 7.5 0 
L 14.90625 0 
z
" id="CMSS17-114"/>
      <path d="M 67 29.328125 
C 67 36.0625 65.296875 44 54.09375 44 
C 46.59375 44 42.09375 39.3125 40.09375 36.421875 
C 38.296875 41.71875 34.09375 44 28.09375 44 
C 21.296875 44 17 40.125 14.703125 37.328125 
L 14.703125 43.09375 
L 7.40625 43.09375 
L 7.40625 0 
L 15 0 
L 15 24.359375 
C 15 30.296875 17.203125 37.9375 24.296875 37.9375 
C 33.40625 37.9375 33.40625 31.5 33.40625 28.578125 
L 33.40625 0 
L 41 0 
L 41 24.359375 
C 41 30.296875 43.203125 37.9375 50.296875 37.9375 
C 59.40625 37.9375 59.40625 31.5 59.40625 28.578125 
L 59.40625 0 
L 67 0 
z
" id="CMSS17-109"/>
      <path d="M 40.796875 44 
L 33.40625 44 
L 33.40625 37.9375 
C 33 38.4375 28.40625 44 20.59375 44 
C 11.5 44 3.296875 34.8125 3.296875 21.859375 
C 3.296875 9.890625 10.203125 -0.078125 19.203125 -0.078125 
C 23.40625 -0.078125 28.703125 1.421875 33.203125 5.703125 
L 33.203125 -19 
L 40.796875 -19 
z
M 33.40625 14.28125 
C 33.40625 13 33.40625 11.21875 30.296875 8.65625 
C 29.5 7.96875 27.296875 6 23.5 6 
C 16.40625 6 10.90625 13.28125 10.90625 21.859375 
C 10.90625 31.421875 17.59375 37.734375 24.40625 37.734375 
C 30.09375 37.734375 33.40625 32.203125 33.40625 28.078125 
z
" id="CMSS17-113"/>
      <path d="M 14.296875 74.484375 
L 1.40625 74.484375 
L 1.40625 71 
L 10.796875 71 
L 10.796875 -21.515625 
L 1.40625 -21.515625 
L 1.40625 -25 
L 14.296875 -25 
z
" id="CMR17-93"/>
      <path d="M 16.796875 37 
L 26.90625 37 
L 26.90625 42.765625 
L 16.59375 42.765625 
L 16.59375 55.609375 
C 16.59375 62.71875 22 63.9375 25.09375 63.9375 
C 26.09375 63.9375 28.90625 63.9375 32.5 62.640625 
L 32.5 69.203125 
C 30.203125 69.703125 27.40625 70 25.203125 70 
C 15.90625 70 9.40625 62.390625 9.40625 52.484375 
L 9.40625 42.765625 
L 2.5 42.765625 
L 2.5 37 
L 9.40625 37 
L 9.40625 0 
L 16.796875 0 
z
" id="CMSS17-102"/>
      <path d="M 39.09375 21.515625 
C 39.09375 24.84375 38.90625 31.296875 35.703125 36.640625 
C 32.203125 42.390625 26.5 44 22.203125 44 
C 11.796875 44 3 34.1875 3 21.484375 
C 3 9.09375 12.09375 -1 23.59375 -1 
C 28.09375 -1 33.59375 0.296875 38.59375 3.875 
C 38.59375 4.28125 38.40625 6.46875 38.296875 6.5625 
C 38.296875 6.765625 38 9.84375 38 10.25 
C 33.203125 6.359375 27.703125 5.078125 23.703125 5.078125 
C 17.296875 5.078125 10.40625 10.421875 10.09375 21.515625 
z
M 10.90625 27 
C 12.203125 32.5625 16.59375 37.828125 22.203125 37.828125 
C 23.703125 37.828125 30.703125 37.828125 32.5 27 
z
" id="CMSS17-101"/>
      <path d="M 44.203125 21.1875 
C 44.203125 34 34.703125 44 23.5 44 
C 12 44 2.703125 33.703125 2.703125 21.1875 
C 2.703125 8.5 12.296875 -1 23.40625 -1 
C 34.796875 -1 44.203125 8.796875 44.203125 21.1875 
M 23.5 5.265625 
C 16.40625 5.265625 10.296875 11.078125 10.296875 22 
C 10.296875 33.609375 17.40625 37.921875 23.40625 37.921875 
C 29.90625 37.921875 36.59375 33.21875 36.59375 22 
C 36.59375 10.671875 30.09375 5.265625 23.5 5.265625 
" id="CMSS17-111"/>
      <path d="M 25.203125 -25 
L 25.203125 -18.9375 
L 16.59375 -18.9375 
L 16.59375 68 
L 25.203125 68 
L 25.203125 74.078125 
L 9.296875 74.078125 
L 9.296875 -25 
z
" id="CMSS17-91"/>
      <path d="M 16.703125 37 
L 29.703125 37 
L 29.703125 42.765625 
L 16.703125 42.765625 
L 16.703125 55 
L 9.59375 55 
L 9.59375 42.765625 
L 1.703125 42.765625 
L 1.703125 37 
L 9.40625 37 
L 9.40625 11.703125 
C 9.40625 6 10.703125 -1 17.296875 -1 
C 22.296875 -1 26.90625 0.390625 31.296875 2.6875 
L 29.703125 8.5625 
C 27.296875 6.46875 24.40625 5.265625 21.296875 5.265625 
C 16.90625 5.265625 16.703125 10.875 16.703125 13.375 
z
" id="CMSS17-116"/>
     </defs>
     <g transform="translate(240.419867939 421.122817754)scale(0.12 -0.12)">
      <use transform="scale(0.9962640099626402)" xlink:href="#CMSS17-119"/>
      <use transform="translate(61.21709118150685 0.0)scale(0.9962640099626402)" xlink:href="#CMSS17-101"/>
      <use transform="translate(102.85591325011676 0.0)scale(0.9962640099626402)" xlink:href="#CMSS17-107"/>
      <use transform="translate(148.45840245077056 0.0)scale(0.9962640099626402)" xlink:href="#CMSS17-116"/>
      <use transform="translate(182.2899691343011 0.0)scale(0.9962640099626402)" xlink:href="#CMSS17-111"/>
      <use transform="translate(226.53113872295302 0.0)scale(0.9962640099626402)" xlink:href="#CMSS17-114"/>
      <use transform="translate(289.67002403097763 0.0)scale(0.9962640099626402)" xlink:href="#CMSS17-102"/>
      <use transform="translate(318.29668284947076 0.0)scale(0.9962640099626402)" xlink:href="#CMSS17-97"/>
      <use transform="translate(363.2186034548179 0.0)scale(0.9962640099626402)" xlink:href="#CMSS17-108"/>
      <use transform="translate(385.39932650023354 0.0)scale(0.9962640099626402)" xlink:href="#CMSS17-111"/>
      <use transform="translate(429.64049608888547 0.0)scale(0.9962640099626402)" xlink:href="#CMSS17-119"/>
      <use transform="translate(493.460041202911 0.0)scale(0.9962640099626402)" xlink:href="#CMSS17-121"/>
      <use transform="translate(567.6892956345346 0.0)scale(0.9962640099626402)" xlink:href="#CMSS17-113"/>
      <use transform="translate(647.1233515187189 0.0)scale(0.9962640099626402)" xlink:href="#CMSS17-91"/>
      <use transform="translate(674.3087901570284 0.0)scale(0.9962640099626402)" xlink:href="#CMSS17-109"/>
      <use transform="translate(748.538044588652 36.15363894185866)scale(0.6973817666173724)" xlink:href="#CMSY10-0"/>
      <use transform="translate(803.2771698416096 0.0)scale(0.9962640099626402)" xlink:href="#CMR17-49"/>
      <use transform="translate(848.9676469586707 0.0)scale(0.9962640099626402)" xlink:href="#CMR17-93"/>
     </g>
    </g>
   </g>
   <g id="matplotlib.axis_2">
    <g id="ytick_1">
     <g id="line2d_42">
      <defs>
       <path d="M 0 0 
L 4 0 
" id="m1729130caa" style="stroke:#000000;stroke-width:0.5;"/>
      </defs>
      <g>
       <use style="stroke:#000000;stroke-width:0.5;" x="72.0" xlink:href="#m1729130caa" y="388.8"/>
      </g>
     </g>
     <g id="line2d_43">
      <defs>
       <path d="M 0 0 
L -4 0 
" id="m43bd20e03d" style="stroke:#000000;stroke-width:0.5;"/>
      </defs>
      <g>
       <use style="stroke:#000000;stroke-width:0.5;" x="518.4" xlink:href="#m43bd20e03d" y="388.8"/>
      </g>
     </g>
     <g id="text_10">
      <!-- $2.5$ -->
      <defs>
       <path d="M 18.40625 4.796875 
C 18.40625 7.6875 16 9.671875 13.59375 9.671875 
C 10.703125 9.671875 8.703125 7.28125 8.703125 4.890625 
C 8.703125 2 11.09375 0 13.5 0 
C 16.40625 0 18.40625 2.390625 18.40625 4.796875 
" id="CMMI12-58"/>
      </defs>
      <g transform="translate(48.0564776619 392.78505604)scale(0.16 -0.16)">
       <use transform="scale(0.9962640099626402)" xlink:href="#CMR17-50"/>
       <use transform="translate(45.69047711706103 0.0)scale(0.9962640099626402)" xlink:href="#CMMI12-58"/>
       <use transform="translate(72.78765420688046 0.0)scale(0.9962640099626402)" xlink:href="#CMR17-53"/>
      </g>
     </g>
    </g>
    <g id="ytick_2">
     <g id="line2d_44">
      <g>
       <use style="stroke:#000000;stroke-width:0.5;" x="72.0" xlink:href="#m1729130caa" y="331.2"/>
      </g>
     </g>
     <g id="line2d_45">
      <g>
       <use style="stroke:#000000;stroke-width:0.5;" x="518.4" xlink:href="#m43bd20e03d" y="331.2"/>
      </g>
     </g>
     <g id="text_11">
      <!-- $3.0$ -->
      <g transform="translate(48.0564776619 335.18505604)scale(0.16 -0.16)">
       <use transform="scale(0.9962640099626402)" xlink:href="#CMR17-51"/>
       <use transform="translate(45.69047711706103 0.0)scale(0.9962640099626402)" xlink:href="#CMMI12-58"/>
       <use transform="translate(72.78765420688046 0.0)scale(0.9962640099626402)" xlink:href="#CMR17-48"/>
      </g>
     </g>
    </g>
    <g id="ytick_3">
     <g id="line2d_46">
      <g>
       <use style="stroke:#000000;stroke-width:0.5;" x="72.0" xlink:href="#m1729130caa" y="273.6"/>
      </g>
     </g>
     <g id="line2d_47">
      <g>
       <use style="stroke:#000000;stroke-width:0.5;" x="518.4" xlink:href="#m43bd20e03d" y="273.6"/>
      </g>
     </g>
     <g id="text_12">
      <!-- $3.5$ -->
      <g transform="translate(48.0564776619 277.58505604)scale(0.16 -0.16)">
       <use transform="scale(0.9962640099626402)" xlink:href="#CMR17-51"/>
       <use transform="translate(45.69047711706103 0.0)scale(0.9962640099626402)" xlink:href="#CMMI12-58"/>
       <use transform="translate(72.78765420688046 0.0)scale(0.9962640099626402)" xlink:href="#CMR17-53"/>
      </g>
     </g>
    </g>
    <g id="ytick_4">
     <g id="line2d_48">
      <g>
       <use style="stroke:#000000;stroke-width:0.5;" x="72.0" xlink:href="#m1729130caa" y="216.0"/>
      </g>
     </g>
     <g id="line2d_49">
      <g>
       <use style="stroke:#000000;stroke-width:0.5;" x="518.4" xlink:href="#m43bd20e03d" y="216.0"/>
      </g>
     </g>
     <g id="text_13">
      <!-- $4.0$ -->
      <g transform="translate(48.0564776619 219.98505604)scale(0.16 -0.16)">
       <use transform="scale(0.9962640099626402)" xlink:href="#CMR17-52"/>
       <use transform="translate(45.69047711706103 0.0)scale(0.9962640099626402)" xlink:href="#CMMI12-58"/>
       <use transform="translate(72.78765420688046 0.0)scale(0.9962640099626402)" xlink:href="#CMR17-48"/>
      </g>
     </g>
    </g>
    <g id="ytick_5">
     <g id="line2d_50">
      <g>
       <use style="stroke:#000000;stroke-width:0.5;" x="72.0" xlink:href="#m1729130caa" y="158.4"/>
      </g>
     </g>
     <g id="line2d_51">
      <g>
       <use style="stroke:#000000;stroke-width:0.5;" x="518.4" xlink:href="#m43bd20e03d" y="158.4"/>
      </g>
     </g>
     <g id="text_14">
      <!-- $4.5$ -->
      <g transform="translate(48.0564776619 162.38505604)scale(0.16 -0.16)">
       <use transform="scale(0.9962640099626402)" xlink:href="#CMR17-52"/>
       <use transform="translate(45.69047711706103 0.0)scale(0.9962640099626402)" xlink:href="#CMMI12-58"/>
       <use transform="translate(72.78765420688046 0.0)scale(0.9962640099626402)" xlink:href="#CMR17-53"/>
      </g>
     </g>
    </g>
    <g id="ytick_6">
     <g id="line2d_52">
      <g>
       <use style="stroke:#000000;stroke-width:0.5;" x="72.0" xlink:href="#m1729130caa" y="100.8"/>
      </g>
     </g>
     <g id="line2d_53">
      <g>
       <use style="stroke:#000000;stroke-width:0.5;" x="518.4" xlink:href="#m43bd20e03d" y="100.8"/>
      </g>
     </g>
     <g id="text_15">
      <!-- $5.0$ -->
      <g transform="translate(48.0564776619 104.78505604)scale(0.16 -0.16)">
       <use transform="scale(0.9962640099626402)" xlink:href="#CMR17-53"/>
       <use transform="translate(45.69047711706103 0.0)scale(0.9962640099626402)" xlink:href="#CMMI12-58"/>
       <use transform="translate(72.78765420688046 0.0)scale(0.9962640099626402)" xlink:href="#CMR17-48"/>
      </g>
     </g>
    </g>
    <g id="ytick_7">
     <g id="line2d_54">
      <g>
       <use style="stroke:#000000;stroke-width:0.5;" x="72.0" xlink:href="#m1729130caa" y="43.2"/>
      </g>
     </g>
     <g id="line2d_55">
      <g>
       <use style="stroke:#000000;stroke-width:0.5;" x="518.4" xlink:href="#m43bd20e03d" y="43.2"/>
      </g>
     </g>
     <g id="text_16">
      <!-- $5.5$ -->
      <g transform="translate(48.0564776619 47.1850560399)scale(0.16 -0.16)">
       <use transform="scale(0.9962640099626402)" xlink:href="#CMR17-53"/>
       <use transform="translate(45.69047711706103 0.0)scale(0.9962640099626402)" xlink:href="#CMMI12-58"/>
       <use transform="translate(72.78765420688046 0.0)scale(0.9962640099626402)" xlink:href="#CMR17-53"/>
      </g>
     </g>
    </g>
    <g id="text_17">
     <!-- f [Hz] -->
     <defs>
      <path d="M 37.5 39.09375 
L 37.5 42.96875 
L 3.90625 42.96875 
L 3.90625 37 
L 16.703125 37 
C 17.90625 37 19.09375 37 20.296875 37 
L 27.296875 37 
L 2.59375 4.078125 
L 2.59375 0 
L 37.796875 0 
L 37.796875 6.171875 
L 24.203125 6.171875 
C 23 6.171875 21.796875 6.171875 20.59375 6.171875 
L 12.90625 6.171875 
z
" id="CMSS17-122"/>
      <path d="M 17.90625 74.078125 
L 2 74.078125 
L 2 68 
L 10.59375 68 
L 10.59375 -18.9375 
L 2 -18.9375 
L 2 -25 
L 17.90625 -25 
z
" id="CMSS17-93"/>
      <path d="M 57.40625 69 
L 49 69 
L 49 39.078125 
L 17.203125 39.078125 
L 17.203125 69 
L 8.796875 69 
L 8.796875 0 
L 17.203125 0 
L 17.203125 33 
L 49 33 
L 49 0 
L 57.40625 0 
z
" id="CMSS17-72"/>
     </defs>
     <g transform="translate(40.067685632 229.764218227)rotate(-90.0)scale(0.12 -0.12)">
      <use transform="scale(0.9962640099626402)" xlink:href="#CMSS17-102"/>
      <use transform="translate(59.85577156950499 0.0)scale(0.9962640099626402)" xlink:href="#CMSS17-91"/>
      <use transform="translate(87.04121020781446 0.0)scale(0.9962640099626402)" xlink:href="#CMSS17-72"/>
      <use transform="translate(153.1027293888154 0.0)scale(0.9962640099626402)" xlink:href="#CMSS17-122"/>
      <use transform="translate(193.7806011879281 0.0)scale(0.9962640099626402)" xlink:href="#CMSS17-93"/>
     </g>
    </g>
    <g id="text_18">
     <!-- $\times10^{9}$ -->
     <defs>
      <path d="M 38.90625 27.890625 
L 18.90625 47.796875 
C 17.703125 49 17.5 49.1875 16.703125 49.1875 
C 15.703125 49.1875 14.703125 48.296875 14.703125 47.1875 
C 14.703125 46.5 14.90625 46.296875 16 45.1875 
L 36 25.09375 
L 16 5 
C 14.90625 3.890625 14.703125 3.6875 14.703125 3 
C 14.703125 1.890625 15.703125 1 16.703125 1 
C 17.5 1 17.703125 1.1875 18.90625 2.390625 
L 38.796875 22.296875 
L 59.5 1.59375 
C 59.703125 1.5 60.40625 1 61 1 
C 62.203125 1 63 1.890625 63 3 
C 63 3.1875 63 3.59375 62.703125 4.09375 
C 62.59375 4.296875 46.703125 20 41.703125 25.09375 
L 60 43.390625 
C 60.5 44 62 45.296875 62.5 45.890625 
C 62.59375 46.09375 63 46.5 63 47.1875 
C 63 48.296875 62.203125 49.1875 61 49.1875 
C 60.203125 49.1875 59.796875 48.796875 58.703125 47.6875 
z
" id="CMSY10-2"/>
      <path d="M 35.203125 29.125 
C 35.203125 7.25 26.09375 0.484375 18.59375 0.484375 
C 16.296875 0.484375 10.703125 0.484375 8.40625 4.59375 
C 11 4.1875 12.90625 5.578125 12.90625 8.09375 
C 12.90625 10.8125 10.703125 11.703125 9.296875 11.703125 
C 8.40625 11.703125 5.703125 11.296875 5.703125 7.90625 
C 5.703125 1.109375 11.59375 -2 18.796875 -2 
C 30.296875 -2 42 10.53125 42 32.390625 
C 42 59.640625 30.796875 65.296875 23.203125 65.296875 
C 13.296875 65.296875 3.796875 56.6875 3.796875 43.40625 
C 3.796875 31.109375 11.90625 22 22.09375 22 
C 30.5 22 34.203125 29.734375 35.203125 33 
z
M 22.296875 23.59375 
C 19.59375 23.59375 15.796875 24.09375 12.703125 30.03125 
C 10.59375 33.890625 10.59375 38.453125 10.59375 43.296875 
C 10.59375 49.15625 10.59375 53.203125 13.40625 57.5625 
C 14.796875 59.640625 17.40625 63 23.203125 63 
C 35 63 35 45.078125 35 41.125 
C 35 34.09375 31.796875 23.59375 22.296875 23.59375 
" id="CMR17-57"/>
     </defs>
     <g transform="translate(72.0 40.2)scale(0.16 -0.16)">
      <use transform="scale(0.9962640099626402)" xlink:href="#CMSY10-2"/>
      <use transform="translate(77.4874676506071 0.0)scale(0.9962640099626402)" xlink:href="#CMR17-49"/>
      <use transform="translate(123.17794476766814 0.0)scale(0.9962640099626402)" xlink:href="#CMR17-48"/>
      <use transform="translate(168.86842188472914 36.15363894185866)scale(0.6973817666173724)" xlink:href="#CMR17-57"/>
     </g>
    </g>
   </g>
   <g id="text_19">
    <!-- y -->
    <g transform="translate(291.987095693 38.2)scale(0.144 -0.144)">
     <use transform="scale(0.9962640099626402)" xlink:href="#CMSS17-121"/>
    </g>
   </g>
  </g>
 </g>
 <defs>
  <clipPath id="p11ca527cda">
   <rect height="345.6" width="446.4" x="72.0" y="43.2"/>
  </clipPath>
 </defs>
</svg>
